<?xml version="1.0" standalone="no"?>
<!DOCTYPE svg PUBLIC "-//W3C//DTD SVG 20010904//EN"
 "http://www.w3.org/TR/2001/REC-SVG-20010904/DTD/svg10.dtd">
<svg version="1.0" xmlns="http://www.w3.org/2000/svg"
 width="400.000000pt" height="400.000000pt" viewBox="0 0 400.000000 400.000000"
 preserveAspectRatio="xMidYMid meet">
<metadata>
Created by potrace 1.11, written by Peter Selinger 2001-2013
</metadata>
<g transform="translate(0.000000,400.000000) scale(0.100000,-0.100000)"
fill="#000000" stroke="none">
<path d="M1950 3856 c0 -2 8 -10 18 -17 15 -13 16 -12 3 4 -13 16 -21 21 -21
13z"/>
<path d="M2001 3833 c7 -12 15 -20 18 -17 3 2 -3 12 -13 22 -17 16 -18 16 -5
-5z"/>
<path d="M2037 3784 c-3 -3 -3 -13 0 -22 4 -10 2 -13 -5 -8 -7 4 -12 2 -12 -3
0 -6 1 -11 3 -11 1 0 17 -4 35 -9 20 -6 30 -6 27 0 -4 5 -13 9 -21 9 -8 0 -14
4 -14 10 0 5 8 7 18 4 9 -3 7 1 -6 8 -12 8 -19 17 -16 21 4 4 5 7 2 7 -2 0 -7
-3 -11 -6z"/>
<path d="M2113 3722 c-7 -5 11 -22 50 -47 34 -22 64 -42 67 -45 17 -20 70 -49
82 -45 7 2 24 -5 38 -16 l25 -21 -28 17 c-16 9 -31 14 -34 12 -2 -3 32 -31 76
-63 80 -57 95 -74 66 -74 -19 0 -19 -14 0 -30 9 -7 26 -9 45 -5 23 5 30 12 30
30 0 13 11 32 24 43 23 18 24 21 10 41 -18 24 -34 28 -34 6 0 -8 -7 -15 -15
-15 -8 0 -15 -4 -15 -9 0 -6 -9 -9 -20 -8 -11 1 -20 4 -20 8 0 4 -17 14 -37
22 -21 9 -31 16 -23 17 22 1 -77 62 -103 64 -12 1 -21 8 -19 15 1 7 -2 10 -7
6 -6 -3 -28 8 -51 24 -26 19 -36 31 -28 35 9 4 8 5 -2 4 -22 -2 -70 23 -64 33
6 11 3 11 -13 1z"/>
<path d="M2230 3660 c14 -10 27 -17 29 -14 6 5 -31 33 -44 33 -5 1 1 -8 15
-19z"/>
<path d="M2296 3634 c-5 -14 -4 -15 9 -4 17 14 19 20 6 20 -5 0 -12 -7 -15
-16z"/>
<path d="M2447 3553 c-10 -9 -9 -23 1 -23 5 0 9 7 9 15 0 17 -1 18 -10 8z"/>
<path d="M2660 3355 c-10 -12 -10 -19 -2 -27 9 -9 15 -7 26 7 23 32 0 49 -24
20z"/>
<path d="M1854 3115 c-18 -7 -35 -18 -38 -24 -4 -6 -16 -11 -27 -11 -10 0 -19
-7 -19 -15 0 -8 -4 -15 -9 -15 -18 0 -43 -70 -36 -101 4 -16 2 -35 -4 -42 -14
-17 7 -100 24 -93 7 2 20 -5 29 -16 14 -16 25 -19 54 -14 20 4 64 9 97 13 80
8 90 20 88 107 -2 93 -19 148 -54 182 -25 24 -33 27 -49 16 -16 -9 -18 -9 -14
2 8 21 -8 26 -42 11z"/>
<path d="M2278 2910 c12 -5 22 -15 22 -21 0 -8 -5 -7 -17 2 -15 13 -15 12 -2
-8 9 -16 16 -19 21 -10 6 9 8 8 8 -2 0 -8 3 -11 6 -8 11 11 -25 57 -44 56 -13
0 -11 -3 6 -9z"/>
<path d="M2212 2845 c24 -29 38 -90 40 -175 l2 -75 4 65 c5 84 -13 162 -41
186 -22 19 -22 19 -5 -1z"/>
<path d="M2202 2811 c16 -33 20 -63 22 -155 0 -63 4 -112 9 -109 11 6 9 165
-4 222 -5 27 -19 57 -29 66 -17 15 -17 13 2 -24z"/>
<path d="M2313 2843 c-10 -3 -10 -9 0 -24 10 -16 9 -21 -2 -28 -15 -10 -8 -41
9 -41 5 0 10 22 10 50 0 28 -1 50 -2 49 -2 0 -8 -3 -15 -6z"/>
<path d="M2161 2825 c21 -25 37 -79 41 -131 2 -36 -2 -45 -30 -69 -18 -15 -56
-36 -84 -47 -28 -10 -65 -30 -81 -44 -16 -13 -33 -24 -39 -24 -25 0 -247 -85
-342 -131 -89 -43 -108 -49 -126 -39 -12 6 -24 9 -27 7 -6 -7 72 -47 91 -47 8
0 58 20 112 45 54 25 128 55 166 66 38 12 78 29 91 39 29 24 -130 -31 -272
-94 -57 -25 -108 -43 -113 -40 -12 8 109 62 282 126 74 28 147 59 161 69 14
10 52 28 83 40 32 11 73 35 92 51 35 31 52 35 31 8 -20 -26 -71 -58 -128 -80
-30 -11 -65 -29 -79 -40 -22 -18 -18 -18 44 5 79 29 122 53 160 92 26 26 27
30 21 97 -8 78 -25 126 -52 147 -17 13 -17 13 -2 -6z"/>
<path d="M2040 2780 c-8 -15 -8 -20 1 -18 6 2 15 -9 19 -23 7 -25 5 -27 -41
-37 -63 -15 -297 -103 -375 -142 -34 -17 -70 -41 -80 -52 l-19 -22 30 21 c42
29 123 68 170 83 22 6 58 20 80 29 37 17 138 52 226 80 60 19 86 12 58 -16 -8
-8 -8 -13 1 -18 19 -12 23 1 15 50 -6 43 -8 46 -31 41 -30 -8 -32 9 -1 18 21
7 21 7 2 15 -14 6 -21 4 -23 -5 -2 -8 -8 -14 -14 -14 -5 0 -8 7 -4 15 8 22 -2
18 -14 -5z m60 -50 c0 -5 -7 -10 -15 -10 -8 0 -15 5 -15 10 0 6 7 10 15 10 8
0 15 -4 15 -10z"/>
<path d="M2271 2774 c0 -11 3 -14 6 -6 3 7 2 16 -1 19 -3 4 -6 -2 -5 -13z"/>
<path d="M2300 2723 c0 -12 5 -25 10 -28 13 -8 13 15 0 35 -8 12 -10 11 -10
-7z"/>
<path d="M2018 2723 c6 -2 18 -2 25 0 6 3 1 5 -13 5 -14 0 -19 -2 -12 -5z"/>
<path d="M1895 2691 c-78 -27 -167 -69 -117 -56 44 12 227 84 212 84 -8 0 -51
-13 -95 -28z"/>
<path d="M2281 2660 c0 -29 1 -32 10 -17 7 11 7 23 0 35 -9 14 -10 11 -10 -18z"/>
<path d="M1995 2666 c-22 -7 -83 -30 -135 -50 -52 -21 -108 -42 -125 -48 -54
-20 -140 -65 -165 -87 -23 -20 -22 -20 15 2 59 35 129 65 224 99 48 17 104 38
126 48 22 10 57 21 78 25 20 4 37 11 37 16 0 11 -6 11 -55 -5z"/>
<path d="M2151 2651 c-15 -19 -38 -33 -67 -40 -24 -6 -44 -16 -44 -21 0 -13 1
-13 56 10 51 22 101 65 86 74 -5 3 -19 -7 -31 -23z"/>
<path d="M1630 2580 c-9 -6 -10 -10 -3 -10 6 0 15 5 18 10 8 12 4 12 -15 0z"/>
<path d="M2251 2564 c0 -11 3 -14 6 -6 3 7 2 16 -1 19 -3 4 -6 -2 -5 -13z"/>
<path d="M1890 2524 c-69 -24 -171 -66 -228 -94 -57 -27 -110 -50 -118 -50 -8
0 -14 -4 -14 -10 0 -17 19 -11 103 31 45 23 145 64 222 91 77 27 147 56 155
63 8 8 12 14 10 14 -3 -1 -61 -21 -130 -45z"/>
<path d="M2233 2518 c-21 -35 -98 -81 -213 -127 -239 -95 -305 -122 -360 -147
-30 -14 -66 -26 -80 -27 -14 -2 -36 -9 -49 -16 l-25 -14 35 -19 34 -19 -35 7
c-19 3 -52 14 -72 24 -21 10 -38 15 -38 11 0 -10 40 -32 95 -53 49 -19 49 -19
11 -14 -21 3 -56 14 -77 24 -22 11 -39 16 -39 11 0 -13 41 -38 92 -55 47 -15
58 -27 38 -39 -28 -17 -100 -215 -100 -274 0 -12 -9 -47 -20 -78 -19 -55 -19
-93 1 -93 5 0 9 -6 9 -14 0 -13 20 -26 39 -26 5 0 11 44 13 98 3 53 13 135 22
182 9 47 19 106 22 131 4 36 14 56 44 89 22 24 40 48 40 54 0 6 4 5 9 -3 7
-10 20 -12 57 -6 27 4 58 9 69 10 132 15 217 44 258 86 22 24 56 27 37 4 -9
-11 1 -9 39 6 28 12 48 25 45 30 -3 5 3 6 12 2 13 -5 15 -3 9 7 -5 8 -3 11 6
8 8 -3 14 -11 14 -19 0 -20 29 -18 33 2 3 17 -20 28 -68 34 -24 2 -132 -31
-197 -60 -17 -8 -36 -15 -41 -15 -6 0 -30 -9 -55 -19 -26 -11 -49 -16 -57 -11
-9 6 6 14 46 25 32 9 73 23 89 30 17 8 66 28 110 46 44 17 91 37 105 44 36 18
104 85 95 93 -3 4 -11 -1 -16 -10 -5 -10 -29 -29 -52 -42 -77 -45 -442 -186
-480 -186 -22 0 16 19 83 41 109 36 343 131 381 155 49 31 89 68 89 84 0 7
-12 1 -26 -14 -15 -14 -41 -35 -58 -45 -36 -22 -508 -211 -527 -211 -27 0 9
19 96 50 110 40 332 131 401 165 51 26 133 100 122 111 -3 3 -10 -1 -15 -8z
m-137 -250 c-21 -8 -25 -13 -15 -19 11 -7 11 -9 -2 -9 -9 0 -19 3 -23 7 -8 8
33 32 54 32 8 0 2 -5 -14 -11z m-446 -89 c0 -6 17 -8 48 -4 l47 6 -44 -25
c-49 -30 -59 -32 -41 -11 12 14 5 20 -21 17 -3 -1 -6 6 -6 14 0 8 4 14 9 14 4
0 8 -5 8 -11z m-143 -231 c-3 -8 -6 -5 -6 6 -1 11 2 17 5 13 3 -3 4 -12 1 -19z"/>
<path d="M2130 2509 c0 -5 5 -7 10 -4 6 3 10 8 10 11 0 2 -4 4 -10 4 -5 0 -10
-5 -10 -11z"/>
<path d="M1520 2480 c-9 -6 -10 -10 -3 -10 6 0 15 5 18 10 8 12 4 12 -15 0z"/>
<path d="M2021 2467 c-30 -11 -50 -22 -44 -24 5 -2 25 3 43 11 30 12 37 12 57
-1 20 -14 25 -13 48 5 21 16 22 21 9 26 -26 10 -56 6 -113 -17z m100 0 c-7 -7
-18 -7 -33 0 -20 9 -20 10 10 10 22 0 29 -4 23 -10z"/>
<path d="M2040 2450 c-8 -4 -26 -13 -40 -19 -104 -49 -101 -65 5 -26 62 22 73
30 64 41 -6 8 -12 14 -13 13 0 0 -8 -4 -16 -9z m-10 -24 c0 -2 -13 -9 -30 -15
-35 -12 -41 -5 -7 9 25 10 37 12 37 6z"/>
<path d="M1818 2373 c7 -3 16 -2 19 1 4 3 -2 6 -13 5 -11 0 -14 -3 -6 -6z"/>
<path d="M2230 2356 c0 -9 5 -16 10 -16 6 0 10 4 10 9 0 6 -4 13 -10 16 -5 3
-10 -1 -10 -9z"/>
<path d="M2165 2320 c-22 -10 -33 -19 -24 -19 8 -1 20 4 25 9 7 7 16 4 28 -9
19 -21 56 -17 56 6 0 8 -6 13 -12 10 -7 -2 -17 2 -23 9 -8 11 -18 10 -50 -6z"/>
<path d="M1460 2315 c0 -5 49 -31 86 -45 44 -17 16 10 -33 31 -48 20 -53 22
-53 14z"/>
<path d="M1708 2293 c7 -3 16 -2 19 1 4 3 -2 6 -13 5 -11 0 -14 -3 -6 -6z"/>
<path d="M1475 2268 c29 -21 85 -42 92 -34 6 6 -39 27 -87 41 -24 7 -24 6 -5
-7z"/>
<path d="M1600 2255 c-7 -9 -8 -15 -2 -15 5 0 12 7 16 15 3 8 4 15 2 15 -2 0
-9 -7 -16 -15z"/>
<path d="M2213 2248 c-17 -16 -25 -19 -35 -10 -11 8 -26 5 -63 -13 -28 -13
-57 -25 -65 -25 -9 0 -20 -4 -25 -9 -29 -28 -265 -80 -362 -81 -40 0 -42 -2
-49 -35 -3 -20 -3 -39 1 -43 14 -14 182 -4 264 17 93 23 118 20 52 -6 -28 -11
-40 -21 -37 -30 4 -9 1 -11 -5 -7 -6 4 -14 2 -18 -2 -3 -5 -17 -15 -31 -22
-23 -11 -22 -12 16 -7 30 3 43 1 47 -9 7 -17 -1 -26 -20 -26 -8 0 -11 5 -7 11
5 9 -1 10 -21 5 -52 -13 -197 -27 -218 -20 -14 4 -17 3 -12 -6 6 -9 37 -11
116 -8 59 2 106 1 103 -4 -3 -4 3 -8 13 -8 15 0 16 -2 3 -10 -18 -12 -43 -13
-36 -2 2 4 -43 7 -100 7 -126 0 -135 -18 -13 -25 83 -5 83 -5 37 -14 -27 -4
-65 -5 -85 -1 -26 4 -35 3 -28 -4 14 -14 111 -15 160 -2 61 16 232 76 312 110
72 30 153 85 153 105 0 6 -5 5 -12 -2 -14 -14 -28 -16 -28 -4 0 5 11 15 25 22
31 16 35 44 5 35 -13 -4 -20 -2 -20 6 0 8 -5 7 -17 -3 -24 -21 -142 -72 -149
-65 -3 3 7 12 23 21 15 8 24 15 19 16 -6 0 -1 7 10 15 30 23 -5 19 -45 -6 -29
-17 -33 -18 -27 -4 5 14 2 16 -11 10 -10 -4 -76 -23 -148 -41 -130 -34 -265
-46 -265 -24 0 6 36 10 89 10 48 0 101 4 117 9 82 26 253 68 309 76 23 3 24
-8 3 -25 -28 -23 -12 -26 20 -4 12 8 19 20 16 26 -4 6 0 15 7 20 10 7 8 8 -7
3 -16 -4 -23 0 -27 14 -3 13 0 18 7 15 7 -3 28 9 47 25 19 17 37 31 42 31 9 0
9 20 -1 20 -4 0 -17 -10 -29 -22z m-89 -64 c4 -11 2 -15 -8 -11 -7 3 -60 -10
-117 -29 -151 -51 -215 -64 -299 -63 -74 2 -74 2 -25 9 28 5 70 9 95 9 46 1
129 23 260 71 92 34 87 33 94 14z m106 -82 c0 -9 -59 -40 -184 -97 -133 -60
-109 -38 39 35 160 79 145 72 145 62z m-214 -37 c-10 -8 -23 -12 -29 -8 -11 7
12 23 33 23 12 -1 11 -4 -4 -15z m204 -13 c0 -16 -250 -123 -315 -136 -30 -6
-30 -6 -5 6 42 20 104 46 161 68 30 11 74 31 99 44 52 27 60 29 60 18z m-180
-6 c0 -3 -4 -8 -10 -11 -5 -3 -10 -1 -10 4 0 6 5 11 10 11 6 0 10 -2 10 -4z
m-62 -26 c-13 -21 -45 -36 -55 -26 -3 3 3 9 13 13 10 3 23 12 27 20 4 7 12 13
18 13 5 0 4 -9 -3 -20z"/>
<path d="M1518 2213 c7 -3 16 -2 19 1 4 3 -2 6 -13 5 -11 0 -14 -3 -6 -6z"/>
<path d="M2215 2193 c-5 -10 -10 -26 -12 -37 -3 -15 -1 -16 11 -7 15 13 28 61
16 61 -4 0 -11 -8 -15 -17z"/>
<path d="M2246 2164 c-4 -9 -4 -19 -1 -22 2 -3 7 3 11 12 4 9 4 19 1 22 -2 3
-7 -3 -11 -12z"/>
<path d="M2281 2054 c0 -11 3 -14 6 -6 3 7 2 16 -1 19 -3 4 -6 -2 -5 -13z"/>
<path d="M1511 2044 c0 -11 3 -14 6 -6 3 7 2 16 -1 19 -3 4 -6 -2 -5 -13z"/>
<path d="M2276 2006 c3 -13 1 -27 -6 -31 -8 -5 -8 -10 0 -20 15 -18 -18 -56
-76 -90 -37 -22 -227 -87 -334 -115 -59 -15 -137 -22 -120 -11 8 6 26 11 40
11 39 0 194 45 307 88 100 38 173 82 173 104 0 6 -7 5 -17 -4 -32 -28 -105
-60 -235 -104 -183 -62 -276 -80 -335 -67 -42 10 -46 10 -29 -3 11 -8 28 -14
37 -14 10 0 21 -5 25 -11 7 -12 -23 -9 -58 6 -10 4 -18 3 -18 -3 0 -19 55 -30
131 -26 49 2 69 0 59 -6 -19 -13 -116 -13 -158 -1 -25 8 -32 7 -29 -2 7 -23
94 -31 197 -18 154 19 420 115 420 151 0 14 -8 12 -38 -10 -41 -30 -249 -99
-317 -105 l-60 -5 60 15 c89 23 244 75 289 97 21 11 52 34 67 51 31 33 39 26
14 -10 -14 -20 -14 -22 5 -20 12 1 20 8 20 20 0 10 4 15 10 12 6 -4 6 4 0 21
-8 21 -8 30 2 36 9 6 9 11 2 14 -6 2 -9 20 -8 39 2 25 -1 35 -12 35 -10 0 -13
-7 -8 -24z"/>
<path d="M1760 2004 c-25 -14 -25 -14 13 -12 20 1 37 5 37 9 0 4 8 10 18 12 9
3 4 5 -13 5 -16 0 -41 -6 -55 -14z"/>
<path d="M1765 1970 c-8 -13 5 -13 25 0 13 8 13 10 -2 10 -9 0 -20 -4 -23 -10z"/>
<path d="M2155 1965 c-18 -9 -23 -14 -13 -15 9 0 20 -5 23 -10 5 -7 -7 -9 -33
-6 -38 4 -40 4 -24 -12 12 -13 18 -14 20 -5 2 9 9 10 21 4 9 -5 23 -6 30 -2
10 6 9 12 -4 25 -15 14 -15 16 -1 16 9 0 16 5 16 10 0 6 -1 10 -2 9 -2 0 -16
-7 -33 -14z"/>
<path d="M2005 1908 c-16 -6 -39 -17 -50 -24 -17 -12 -17 -14 -2 -14 29 0 19
-20 -10 -21 l-28 0 25 -10 c17 -7 26 -7 28 1 2 5 9 7 15 3 7 -4 8 0 4 11 -6
15 -3 17 22 11 20 -4 39 0 62 14 l33 20 -37 -6 c-40 -6 -54 12 -14 20 18 4 19
4 2 5 -11 0 -33 -4 -50 -10z m5 -22 c0 -2 -9 -6 -20 -9 -11 -3 -20 -1 -20 4 0
5 9 9 20 9 11 0 20 -2 20 -4z m37 -12 c-3 -3 -12 -4 -19 -1 -8 3 -5 6 6 6 11
1 17 -2 13 -5z"/>
<path d="M1781 1836 l-24 -13 26 -5 c16 -3 28 0 31 8 8 20 -6 24 -33 10z"/>
<path d="M2265 1824 c-13 -14 -23 -31 -21 -37 1 -7 1 -9 -1 -4 -3 4 -10 4 -16
0 -7 -4 -21 -9 -31 -10 -11 -2 -24 -7 -30 -12 -6 -4 -44 -18 -84 -30 -46 -14
-81 -31 -94 -46 -24 -28 -49 -35 -27 -8 13 15 11 16 -16 9 -16 -4 -52 -11 -79
-16 -63 -12 -75 -24 -16 -16 32 4 38 3 20 -3 -14 -5 -42 -9 -63 -10 -21 -1
-36 -5 -32 -10 3 -5 -3 -12 -12 -14 -10 -3 0 -5 22 -6 22 0 65 6 95 14 30 9
62 17 70 18 32 6 197 60 225 74 17 9 33 21 37 27 6 8 8 8 8 -1 0 -26 -69 -56
-273 -119 -90 -27 -222 -36 -307 -21 l-35 7 30 -15 c18 -9 63 -14 115 -15 67
0 81 -3 66 -12 -19 -11 -145 -6 -196 8 -20 5 -23 4 -13 -6 18 -19 108 -31 198
-26 53 4 70 2 50 -3 -43 -12 -189 -13 -219 -1 -16 6 -26 6 -26 0 0 -12 65 -30
115 -31 35 0 37 -2 17 -9 -12 -6 -44 -8 -70 -5 -40 3 -44 2 -26 -8 12 -7 19
-18 17 -24 -5 -15 -6 -15 120 -3 53 5 107 14 118 21 11 6 28 7 37 4 15 -6 15
-8 -3 -15 -40 -15 -204 -32 -270 -28 -59 4 -65 2 -48 -10 14 -11 42 -13 123
-9 116 6 108 -6 -12 -17 -50 -5 -84 -4 -97 4 -12 6 -21 7 -21 2 0 -19 53 -32
108 -27 40 3 50 2 32 -4 -35 -12 -94 -13 -125 -1 -15 6 -24 6 -20 1 14 -23 74
-33 132 -21 136 27 302 74 353 99 104 52 255 133 265 142 22 21 -15 5 -124
-51 -64 -34 -106 -52 -93 -41 13 11 67 44 120 72 112 60 107 57 99 65 -3 4
-45 -15 -93 -40 -47 -26 -88 -45 -91 -43 -4 5 22 22 120 77 32 18 56 34 53 37
-3 3 -35 -11 -72 -31 -74 -41 -91 -42 -44 -2 17 14 28 30 25 36 -3 5 0 10 7
10 10 0 10 2 -1 9 -15 10 1 30 49 63 19 13 21 17 8 17 -9 1 -20 -3 -23 -9 -8
-12 -25 -13 -25 -2 0 5 11 14 25 20 14 6 25 16 25 22 0 8 -6 7 -20 0 -27 -15
-25 4 3 23 19 14 20 16 4 16 -10 1 -29 -11 -42 -25z m-45 -129 c0 -13 -111
-58 -210 -85 -149 -40 -164 -37 -20 5 63 18 140 45 170 59 63 29 60 27 60 21z
m-19 -49 c-12 -15 -107 -52 -156 -61 -16 -3 4 7 45 23 41 15 84 33 95 40 26
15 30 15 16 -2z m-21 -51 c-19 -19 -142 -57 -152 -47 -5 5 24 16 62 26 39 10
73 22 76 27 3 5 10 9 17 9 7 0 6 -5 -3 -15z m-193 -51 c-3 -3 -12 -4 -19 -1
-8 3 -5 6 6 6 11 1 17 -2 13 -5z m-44 -11 c-7 -2 -19 -2 -25 0 -7 3 -2 5 12 5
14 0 19 -2 13 -5z m-106 -49 c-3 -3 -12 -4 -19 -1 -8 3 -5 6 6 6 11 1 17 -2
13 -5z m220 -10 c-3 -3 -12 -4 -19 -1 -8 3 -5 6 6 6 11 1 17 -2 13 -5z m-60
-10 c-3 -3 -12 -4 -19 -1 -8 3 -5 6 6 6 11 1 17 -2 13 -5z"/>
<path d="M1908 1823 c7 -3 16 -2 19 1 4 3 -2 6 -13 5 -11 0 -14 -3 -6 -6z"/>
<path d="M1838 1813 c7 -3 16 -2 19 1 4 3 -2 6 -13 5 -11 0 -14 -3 -6 -6z"/>
<path d="M1758 1803 c7 -3 16 -2 19 1 4 3 -2 6 -13 5 -11 0 -14 -3 -6 -6z"/>
<path d="M3859 1794 c-11 -14 -10 -16 9 -12 13 1 23 7 23 13 1 17 -17 16 -32
-1z"/>
<path d="M1710 1636 c0 -2 7 -7 16 -10 8 -3 12 -2 9 4 -6 10 -25 14 -25 6z"/>
<path d="M1424 1552 c-13 -8 -34 -46 -34 -61 0 -6 9 -11 20 -11 23 0 27 -18 5
-26 -24 -10 -17 -24 18 -38 50 -21 79 -16 88 17 9 32 5 33 -23 7 -16 -15 -24
-17 -29 -8 -10 15 -2 28 17 28 11 0 14 8 12 28 -2 19 -8 26 -20 24 -10 -2 -18
1 -18 6 0 17 -25 41 -36 34z m17 -115 c-10 -9 -11 -8 -5 6 3 10 9 15 12 12 3
-3 0 -11 -7 -18z"/>
<path d="M1501 1523 c11 -34 19 -42 19 -20 0 7 -7 22 -15 33 -13 17 -14 16 -4
-13z"/>
<path d="M2164 1480 c-150 -76 -399 -145 -499 -137 l-60 4 -4 -46 c-4 -51 -4
-93 -1 -131 5 -60 -9 -317 -18 -340 -6 -14 -18 -83 -27 -155 -9 -71 -20 -157
-26 -190 -7 -41 -6 -71 1 -95 10 -33 9 -37 -21 -62 l-32 -27 23 -60 c19 -52
28 -63 64 -80 117 -55 151 -36 160 90 1 21 10 44 19 53 35 35 77 265 78 421 0
66 4 140 9 165 6 25 15 72 21 105 6 33 19 85 29 115 10 30 26 90 36 133 24
107 31 115 73 80 18 -16 35 -40 37 -53 8 -59 16 -97 25 -126 5 -17 11 -54 13
-82 2 -29 11 -58 20 -67 9 -9 16 -28 16 -41 0 -14 7 -48 17 -76 14 -44 15 -64
4 -157 -22 -205 -12 -322 39 -443 l32 -76 77 -6 c42 -4 94 -8 116 -10 l40 -3
3 44 c2 28 -3 54 -14 72 -16 28 -16 31 0 57 22 32 17 112 -14 241 -63 268 -84
480 -66 663 10 96 -15 269 -40 277 -6 2 -64 -24 -130 -57z"/>
<path d="M3270 1340 c0 -13 30 -13 50 0 11 7 7 10 -17 10 -18 0 -33 -4 -33
-10z"/>
<path d="M2441 194 c0 -11 3 -14 6 -6 3 7 2 16 -1 19 -3 4 -6 -2 -5 -13z"/>
<path d="M1510 150 c0 -5 5 -10 11 -10 5 0 7 5 4 10 -3 6 -8 10 -11 10 -2 0
-4 -4 -4 -10z"/>
<path d="M2275 90 c-29 -4 -35 -8 -24 -14 23 -10 94 -3 92 9 -2 13 -18 14 -68
5z"/>
<path d="M1630 60 c-20 -7 -16 -8 23 -9 26 -1 47 4 47 9 0 12 -34 12 -70 0z"/>
</g>
</svg>
